<svg xmlns="http://www.w3.org/2000/svg" viewBox="0 0 512 512" fill="#374151">
  <path d="M440,399H72a16,16,0,0,1-16-16V183a16,16,0,0,1,16-16H440a16,16,0,0,1,16,16V383A16,16,0,0,1,440,399ZM88,367H424V199H88Z"></path>
  <path d="M440 199H72a16 16 0 01-16-16V139a48.05 48.05 0 0148-48H408a48.05 48.05 0 0148 48v44A16 16 0 01440 199zM88 167H424V139a16 16 0 00-16-16H104a16 16 0 00-16 16zM408 475H282a42 42 0 01-38.83-26H104a48.05 48.05 0 01-48-48V383a16 16 0 0116-16H440a16 16 0 0116 16v44A48.05 48.05 0 01408 475zM88 399v2a16 16 0 0016 16H256a16 16 0 0116 16 10 10 0 0010 10H408a16 16 0 0016-16V399z"></path>
  <path d="M440 183V383H253c86.26-27.93 149.91-106.1 156.44-200zM440 139v44H351a78 78 0 0037.52-76H408A32 32 0 01440 139zM440 383v44a32 32 0 01-32 32H322a114.2 114.2 0 0068-76z" opacity=".2"></path>
  <path d="M72 279H16A16 16 0 010 263V163a16 16 0 0116-16H72a16 16 0 0116 16V263A16 16 0 0172 279zM32 247H56V179H32zM496 429H440a16 16 0 01-16-16V313a16 16 0 0116-16h56a16 16 0 0116 16V413A16 16 0 01496 429zm-40-32h24V329H456z"></path>
  <path d="M440,345H208a58.07,58.07,0,0,1-58-58V253a16,16,0,0,1,32,0v34a26,26,0,0,0,26,26H440a16,16,0,0,1,0,32Z"></path>
  <path d="M290,345H268a58.07,58.07,0,0,1-58-58V253a16,16,0,0,1,32,0v34a26,26,0,0,0,26,26h22a16,16,0,0,1,0,32Z"></path>
  <path d="M350,345H328a58.07,58.07,0,0,1-58-58V253a16,16,0,0,1,32,0v34a26,26,0,0,0,26,26h22a16,16,0,0,1,0,32Z"></path>
  <path d="M410,345H388a58.07,58.07,0,0,1-58-58V253a16,16,0,0,1,32,0v34a26,26,0,0,0,26,26h22a16,16,0,0,1,0,32Z"></path>
  <path d="M368 269H144a16 16 0 010-32H368a16 16 0 010 32zM204 123H128a16 16 0 01-16-16V75a38 38 0 0138-38h32a38 38 0 0138 38v32A16 16 0 01204 123zM144 91h44V75a6 6 0 00-6-6H150a6 6 0 00-6 6z"></path>
  <path d="M72 204.73V263H16V228.93A69.79 69.79 0 0072 204.73zM496 349.47V413H440V380.78A57 57 0 00496 349.47zM204 75v32H148.37A63.94 63.94 0 00178 53h4A22 22 0 01204 75z" opacity=".2"></path>
</svg>
