<svg xmlns="http://www.w3.org/2000/svg" viewBox="0 0 48 48" fill="#374151">
  <path d="M25,10.0506592V6h3v-2h-8v2h3v4.0506592c-8.9077759,.5220337-16,7.9128418-16,16.9493408,0,9.3740234,7.6259766,17,17,17s17-7.6259766,17-17c0-9.036499-7.0922241-16.4273071-16-16.9493408Zm-1,31.9493408c-8.2714844,0-15-6.7290039-15-15s6.7285156-15,15-15,15,6.7290039,15,15-6.7285156,15-15,15Z"></path>
  <path d="M35,26h1.9494629c-.4869385-6.3797607-5.5697021-11.4625244-11.9494629-11.9494629v1.9494629h-2v-1.9494629c-6.3797607,.4869385-11.4625244,5.5697021-11.9494629,11.9494629h1.9494629v2h-1.9494629c.4869385,6.3797607,5.5697021,11.4625244,11.9494629,11.9494629v-1.9494629h2v1.9494629c6.3797607-.4869385,11.4625244-5.5697021,11.9494629-11.9494629h-1.9494629v-2Zm-8,1c0,1.6542969-1.3457031,3-3,3s-3-1.3457031-3-3,1.3457031-3,3-3c.4916382,0,.9491577,.130127,1.3590698,.3406372l5.5842896-5.2683716,1.3730469,1.4550781-5.5767822,5.2612915c.164856,.3712769,.260376,.7796631,.260376,1.2113647Z"></path>
  <circle cx="24" cy="27" r="1"></circle>
</svg>
