<svg xmlns="http://www.w3.org/2000/svg" width="190.714" height="30" viewBox="0 0 190.714 30">
  <g id="logo" transform="translate(-213.494 -379.792)">
    <path id="パス_40" data-name="パス 40" d="M213.913,398.769H222.5v1.591c0,2.1.266,3.181,1.792,3.181,1.106,0,1.832-.89,1.832-2.521,0-2.561-2.137-2.835-5.38-3.883-4.845-1.551-7.248-2.831-7.248-8.188,0-6.208,3.128-9.158,10.185-9.158a18.336,18.336,0,0,1,10.645,3.182v7.179h-8.318v-1.317c0-1.864-.647-2.833-1.793-2.833-1.181,0-1.794.658-1.794,2.016,0,2.057,1.49,2.367,4.923,3.376,5.38,1.591,7.669,2.912,7.669,9.238,0,6.208-3.4,9.159-10.492,9.159-4.578,0-8.24-1.2-10.606-3.108Z" fill="#fff"/>
    <path id="パス_41" data-name="パス 41" d="M248.542,404.092v5.128H237.706v-5.128c.878-.465,1.03-1.242,1.03-2.639v-13.4c0-1.4-.152-2.177-1.03-2.643v-5.048h10.836v5.048c-.878.39-.954,1.165-.954,2.643v3.455h3.4v-3.455c0-1.516-.114-2.253-.954-2.643v-5.048h10.835v5.048c-.915.465-1.031,1.283-1.031,2.643v13.4c0,1.4.116,2.174,1.031,2.639v5.128H250.03v-5.128c.84-.349.954-1.125.954-2.639v-4.39h-3.4v4.39C247.588,402.927,247.664,403.743,248.542,404.092Z" fill="#fff"/>
    <path id="パス_42" data-name="パス 42" d="M275.3,385.412c-.916.465-1.03,1.283-1.03,2.643v13.4c0,1.4.114,2.174,1.03,2.639v5.128H264.353v-5.128c.877-.465,1.068-1.242,1.068-2.639v-13.4c0-1.4-.191-2.177-1.068-2.643v-5.048H275.3Z" transform="translate(0.93)" fill="#fff"/>
    <path id="パス_43" data-name="パス 43" d="M288.443,403.2v-6.25h.535c2.251,0,3.318.97,3.318,3.108,0,2.172-.915,3.183-2.937,3.183A6.9,6.9,0,0,1,288.443,403.2Zm-9.691,6.023h12.629c6.715,0,10-1.787,10-8.351,0-3.922-1.641-6.175-4.961-6.834,2.862-.583,4.5-2.8,4.5-6.178,0-5.705-2.937-7.493-9.614-7.493H278.752v5.048c.878.465,1.032,1.243,1.032,2.643v13.4c0,1.4-.154,2.174-1.032,2.639Zm9.691-17.711v-5.242s.383-.04,1.107-.04c1.717,0,2.594.895,2.594,2.719,0,1.785-.915,2.6-2.785,2.6A7.072,7.072,0,0,1,288.443,391.509Z" transform="translate(1.278)" fill="#fff"/>
    <path id="パス_44" data-name="パス 44" d="M312.214,396.636l1.335-10.255,1.6,10.255ZM302.9,409.22h9.807v-5.128a1.277,1.277,0,0,1-1.26-1.435c0-.272.076-.545.114-.895h4.312a6.959,6.959,0,0,1,.152.778,1.537,1.537,0,0,1-.953,1.552v5.128H326.14v-5.128c-.575-.194-1.071-1.01-1.336-2.33l-4.35-21.4H307.939l-3.853,21.4c-.229,1.36-.725,2.175-1.183,2.33Z" transform="translate(1.758)" fill="#fff"/>
    <path id="パス_45" data-name="パス 45" d="M339.454,385.41v-5.046h10.111v5.046c-.916.465-1.068,1.282-1.068,2.642v10.17c0,3.106-.041,5.513-.955,7.259-1.566,2.952-4.615,4.311-9.309,4.311-4.043,0-6.906-1.165-8.586-3.534-1.22-1.785-1.334-3.766-1.334-6.133V388.052c0-1.438-.226-2.177-1.259-2.642v-5.046h10.875v5.046c-.877.39-.993,1.164-.993,2.642v12.693c0,1.9.383,2.834,1.754,2.834,1.336,0,1.756-.894,1.756-2.834V388.052C340.446,386.537,340.294,385.8,339.454,385.41Z" transform="translate(2.223 0)" fill="#fff"/>
    <path id="パス_46" data-name="パス 46" d="M362.37,392.247v-5.941h.461c2.361,0,3.09.62,3.09,2.912,0,2.33-.652,3.028-2.672,3.028Zm0,9.205v-3.5h.5c2.326,0,2.555,1.087,2.594,3.845a32.557,32.557,0,0,0,.535,7.419h9.426v-5.128c-1.07-.545-1.031-1.592-1.07-3.612-.079-3.3-.383-4.853-3.625-5.748,2.863-.891,4.16-2.99,4.16-6.6,0-6.02-3.131-7.768-9.92-7.768h-12.4v5.048c.877.465,1.032,1.243,1.032,2.643v13.4c0,1.4-.155,2.174-1.032,2.639v5.128H363.44v-5.128C362.444,403.7,362.37,402.927,362.37,401.452Z" transform="translate(3.229)" fill="#fff"/>
    <path id="パス_47" data-name="パス 47" d="M387.054,396.636l1.336-10.255,1.6,10.255Zm-9.309,12.584h9.8v-5.128a1.277,1.277,0,0,1-1.258-1.435c0-.272.074-.545.113-.895h4.311a6.431,6.431,0,0,1,.154.778,1.537,1.537,0,0,1-.953,1.552v5.128h11.062v-5.128c-.572-.194-1.068-1.01-1.335-2.33l-4.348-21.4H382.782l-3.853,21.4c-.231,1.36-.727,2.175-1.184,2.33Z" transform="translate(3.229)" fill="#fff"/>
  </g>
</svg>
