<?xml version="1.0" encoding="UTF-8"?>
<svg width="337px" height="42px" viewBox="0 0 337 42" version="1.1" xmlns="http://www.w3.org/2000/svg" xmlns:xlink="http://www.w3.org/1999/xlink">
    <title>LOGO/renversé</title>
    <defs>
        <polygon id="path-1" points="0.0340647186 0.0658965517 36.4541361 0.0658965517 36.4541361 41.2755 0.0340647186 41.2755"></polygon>
        <polygon id="path-3" points="0 41.2758621 336.575468 41.2758621 336.575468 0.0658965517 0 0.0658965517"></polygon>
    </defs>
    <g id="Symbols" stroke="none" stroke-width="1" fill="none" fill-rule="evenodd">
        <g id="Header/Menu/closed" transform="translate(-96.000000, -87.000000)">
            <g id="Group-21" transform="translate(96.000000, 87.000000)">
                <polygon id="Fill-1" fill="#FEFEFE" points="305 1 305 41 337 41 337 31.1508159 317.495924 31.1508159 317.495924 1"></polygon>
                <polygon id="Fill-2" fill="#FEFEFE" points="0 0 0 40 32 40 32 30.150268 12.4962109 30.150268 12.4962109 0"></polygon>
                <path d="M60.1924958,0 L45,40 L57.7513561,40 L59.7232153,33.3962024 L73.902976,33.3962024 L75.9240399,40 L89,40 L73.8141138,0 L60.1924958,0 Z M66.8512844,10.3679477 L71.3098159,24.7486145 L62.4360823,24.7486145 L66.8512844,10.3679477 Z" id="Fill-3" fill="#FEFEFE"></path>
                <g id="Group-20">
                    <path d="M105.122555,16.8918931 L110.355537,16.8918931 C110.919392,16.8918931 112.016466,16.7101345 113.639464,16.3480655 C114.462269,16.1844103 115.134081,15.7687552 115.654169,15.0974793 C116.174258,14.4283759 116.432479,13.657169 116.432479,12.7882034 C116.432479,11.5021345 116.023265,10.5129621 115.200459,9.82503103 C114.380572,9.13492759 112.836353,8.79023793 110.57291,8.79023793 L105.122555,8.79023793 L105.122555,16.8918931 Z M92.6652255,40.5965483 L92.6652255,0.743617241 L113.340394,0.743617241 C117.172858,0.743617241 120.101548,1.06947931 122.128654,1.7241 C124.15576,2.3751 125.788241,3.58513448 127.030472,5.3513069 C128.272704,7.11965172 128.893455,9.27106552 128.893455,11.8084448 C128.893455,14.0192379 128.417132,15.9280655 127.468864,17.5305828 C126.519866,19.1359966 125.211256,20.4351 123.550327,21.4329621 C122.491184,22.0665828 121.038145,22.5937552 119.194128,23.0101345 C120.672697,23.4982034 121.747158,23.9898931 122.424806,24.4779621 C122.879245,24.8045483 123.540845,25.5040655 124.407416,26.5736172 C125.274717,27.6446172 125.850972,28.4672379 126.144206,29.0494448 L132.152581,40.5965483 L118.134985,40.5965483 L111.50586,28.4187207 C110.667007,26.8415483 109.917145,25.8168931 109.261381,25.3454793 C108.366362,24.7292379 107.350985,24.4214793 106.219628,24.4214793 L105.122555,24.4214793 L105.122555,40.5965483 L92.6652255,40.5965483 Z" id="Fill-4" fill="#FEFEFE"></path>
                    <g id="Group-8" transform="translate(133.487013, 0.000000)">
                        <mask id="mask-2" fill="white">
                            <use xlink:href="#path-1"></use>
                        </mask>
                        <g id="Clip-7"></g>
                        <path d="M0.0340647186,27.4126034 L11.8356297,26.6776034 C12.0909327,28.5813621 12.6110214,30.0303621 13.3958959,31.0267759 C14.6760582,32.6416034 16.5011102,33.4461207 18.8746989,33.4461207 C20.6428548,33.4461207 22.0076318,33.0340862 22.9661123,32.2100172 C23.9245929,31.3873966 24.4031037,30.4300862 24.4031037,29.342431 C24.4031037,28.3098103 23.946476,27.3850862 23.0354089,26.5697069 C22.121424,25.7543276 20.0060561,24.984569 16.6834695,24.2582586 C11.2433266,23.0446034 7.36272056,21.4326724 5.04602792,19.4202931 C2.70672273,17.4079138 1.5403526,14.8437414 1.5403526,11.7270517 C1.5403526,9.67918966 2.13630281,7.74501724 3.33403874,5.92381034 C4.52885693,4.10115517 6.32546082,2.66953448 8.72749762,1.6275 C11.1295344,0.585465517 14.4200258,0.0655344828 18.6004305,0.0655344828 C23.7291037,0.0655344828 27.6381578,1.01053448 30.3326989,2.90415517 C33.0250517,4.80067241 34.6261665,7.81091379 35.1396903,11.9450172 L23.4453526,12.6242586 C23.1360712,10.830569 22.4839543,9.52422414 21.4875431,8.70884483 C20.4911318,7.89563793 19.1205193,7.48505172 17.3676816,7.48505172 C15.9241253,7.48505172 14.8394522,7.78846552 14.1085561,8.39601724 C13.3798483,9.00356897 13.0144002,9.74146552 13.0144002,10.6118793 C13.0144002,11.2469483 13.3141989,11.8161207 13.9159846,12.3266379 C14.5024522,12.8487414 15.8891123,13.340431 18.0803418,13.7937414 C23.5022487,14.9516379 27.3850431,16.1269138 29.7309132,17.3145 C32.0760539,18.5006379 33.7843959,19.9713621 34.8530214,21.7302931 C35.9187292,23.4885 36.4541361,25.4538103 36.4541361,27.6283966 C36.4541361,30.1860517 35.7422054,32.5402241 34.3168851,34.6981552 C32.8922942,36.8539138 30.9031188,38.487569 28.3471708,39.6049138 C25.7904933,40.7186379 22.568569,41.2755 18.6821275,41.2755 C11.854595,41.2755 7.1263829,39.9706034 4.49749113,37.3608103 C1.86859935,34.7531897 0.380547403,31.4351897 0.0340647186,27.4126034" id="Fill-6" fill="#FEFEFE" mask="url(#mask-2)"></path>
                    </g>
                    <polygon id="Fill-9" fill="#FEFEFE" points="175.75418 0.743762069 209.00047 0.743762069 209.00047 9.25383103 188.185979 9.25383103 188.185979 15.5878655 207.493453 15.5878655 207.493453 23.7141414 188.185979 23.7141414 188.185979 31.5717621 209.599338 31.5717621 209.599338 40.5966931 175.75418 40.5966931"></polygon>
                    <polygon id="Fill-11" fill="#FEFEFE" points="215.944348 0.743762069 227.528541 0.743762069 242.64321 22.7923138 242.64321 0.743762069 254.338277 0.743762069 254.338277 40.5966931 242.64321 40.5966931 227.610967 18.7146931 227.610967 40.5966931 215.944348 40.5966931"></polygon>
                    <path d="M283.732263,25.4010931 L279.300202,11.0733 L274.916284,25.4010931 L283.732263,25.4010931 Z M286.304258,34.0168862 L272.221014,34.0168862 L270.266852,40.5964034 L257.600903,40.5964034 L272.687124,0.743472414 L286.219644,0.743472414 L301.302947,40.5964034 L288.313129,40.5964034 L286.304258,34.0168862 Z" id="Fill-13" fill="#FEFEFE"></path>
                    <path d="M31.080445,12.3643655 L38.2923909,12.3643655 C38.6709688,14.0479862 38.8883411,16.9525034 35.6036853,19.6962621 L37.1741636,22.1460207 C43.0395684,18.8729172 44.3131658,13.7395034 44.3226485,10.3954345 L44.3226485,9.39612414 L31.080445,9.39612414 L31.080445,12.3643655 Z" id="Fill-15" fill="#E02726			"></path>
                    <mask id="mask-4" fill="white">
                        <use xlink:href="#path-3"></use>
                    </mask>
                    <g id="Clip-18"></g>
                    <polygon id="Fill-17" fill="#E02726			" mask="url(#mask-4)" points="31.0805909 4.04213793 44.3227944 4.04213793 44.3227944 0.850137931 31.0805909 0.850137931"></polygon>
                    <polygon id="Fill-19" fill="#E02726			" mask="url(#mask-4)" points="31.0805909 8.15017241 44.3227944 8.15017241 44.3227944 5.22393103 31.0805909 5.22393103"></polygon>
                </g>
            </g>
        </g>
    </g>
</svg>